<svg height="512pt" viewBox="-19 0 512 512" width="512pt" xmlns="http://www.w3.org/2000/svg"><path d="m404.421875 329.304688c-27.175781-27.175782-59.800781-46.921876-95.402344-58.25 43.597657-25.066407 73.023438-72.121094 73.023438-125.917969 0-80.027344-65.109375-145.136719-145.136719-145.136719-80.03125 0-145.136719 65.109375-145.136719 145.136719 0 53.796875 29.421875 100.851562 73.019531 125.917969-35.601562 11.328124-68.226562 31.074218-95.402343 58.25-44.746094 44.746093-69.386719 104.238281-69.386719 167.515624 0 8.382813 6.796875 15.179688 15.179688 15.179688h443.449218c8.382813 0 15.179688-6.796875 15.179688-15.179688 0-63.277343-24.640625-122.769531-69.386719-167.515624zm-282.296875-184.167969c0-63.289063 51.488281-114.78125 114.78125-114.78125 63.289062 0 114.78125 51.492187 114.78125 114.78125 0 63.289062-51.492188 114.78125-114.78125 114.78125-63.292969 0-114.78125-51.492188-114.78125-114.78125zm-91.214844 336.507812c7.792969-106.835937 97.207032-191.371093 205.996094-191.371093s198.203125 84.535156 205.996094 191.371093zm0 0" fill="#feeb70"/><g fill="#ff4fa1"><path d="m236.90625 224.984375c7.9375 0 15.546875-6.980469 15.179688-15.179687-.371094-8.222657-6.671876-15.175782-15.179688-15.175782-7.9375 0-15.546875 6.980469-15.179688 15.175782.371094 8.226562 6.671876 15.179687 15.179688 15.179687zm0 0"/><path d="m236.90625 182.488281c-8.382812 0-15.179688-6.796875-15.179688-15.179687v-22.960938c0-8.382812 6.796876-15.179687 15.179688-15.179687 9.242188 0 16.757812-7.519531 16.757812-16.761719s-7.519531-16.761719-16.757812-16.761719c-9.242188 0-16.761719 7.519531-16.761719 16.761719 0 8.382812-6.796875 15.179688-15.179687 15.179688-8.378906 0-15.175782-6.796876-15.175782-15.179688 0-25.980469 21.136719-47.117188 47.117188-47.117188 25.976562 0 47.117188 21.136719 47.117188 47.117188 0 20.675781-13.382813 38.28125-31.941407 44.609375v10.292969c0 8.382812-6.792969 15.179687-15.175781 15.179687zm0 0"/></g></svg>